<?xml version="1.0" encoding="UTF-8" standalone="no"?>
<svg width="32px" height="32px" viewBox="0 0 32 32" version="1.1" xmlns="http://www.w3.org/2000/svg" xmlns:xlink="http://www.w3.org/1999/xlink" xmlns:sketch="http://www.bohemiancoding.com/sketch/ns">
    <!-- Generator: Sketch 3.4.4 (17249) - http://www.bohemiancoding.com/sketch -->
    <title>Page 1</title>
    <desc>Created with Sketch.</desc>
    <defs></defs>
    <g id="Page-1" stroke="none" stroke-width="1" fill="none" fill-rule="evenodd" sketch:type="MSPage">
        <g id="Desktop" sketch:type="MSArtboardGroup" transform="translate(-761.000000, -3523.000000)">
            <g id="Footer" sketch:type="MSLayerGroup" transform="translate(0.000000, 3375.000000)">
                <g id="Page-1" transform="translate(761.000000, 148.000000)" sketch:type="MSShapeGroup">
                    <path d="M32,30 C32,31.104 31.104,32 30,32 L2,32 C0.896,32 0,31.104 0,30 L0,2 C0,0.896 0.896,0 2,0 L30,0 C31.104,0 32,0.896 32,2 L32,30 Z" id="Fill-1" fill="#9B9B9B"></path>
                    <path d="M22,32 L22,20 L26,20 L27,15 L22,15 L22,13 C22,11 23.002,10 25,10 L27,10 L27,5 L23,5 C19.325,5 17,7.881 17,12 L17,15 L13,15 L13,20 L17,20 L17,32 L22,32 Z" id="Fill-3" fill="#FFFFFF"></path>
                </g>
            </g>
        </g>
    </g>
</svg>